<svg width="22" height="23" viewBox="0 0 22 23" fill="none" xmlns="http://www.w3.org/2000/svg">
<path d="M11 0.5C4.925 0.5 0 5.425 0 11.5C0 17.575 4.925 22.5 11 22.5C17.075 22.5 22 17.575 22 11.5C22 5.425 17.075 0.5 11 0.5ZM16.968 6.176L13.968 14.176C13.917 14.311 13.811 14.417 13.676 14.468L5.676 17.468C5.619 17.489 5.559 17.5 5.5 17.5C5.37 17.5 5.242 17.449 5.146 17.354C5.007 17.215 4.962 17.008 5.031 16.825L8.031 8.825C8.082 8.69 8.189 8.583 8.323 8.533L16.323 5.533C16.509 5.463 16.714 5.509 16.852 5.648C16.992 5.785 17.037 5.992 16.968 6.176Z" fill="black"/>
<path d="M11 13.5C12.1046 13.5 13 12.6046 13 11.5C13 10.3954 12.1046 9.5 11 9.5C9.89543 9.5 9 10.3954 9 11.5C9 12.6046 9.89543 13.5 11 13.5Z" fill="black"/>
</svg>
