<svg width="24" height="25" viewBox="0 0 24 25" fill="none" xmlns="http://www.w3.org/2000/svg">
<path d="M12 1.5C5.925 1.5 1 6.425 1 12.5C1 18.575 5.925 23.5 12 23.5C18.075 23.5 23 18.575 23 12.5C23 6.425 18.075 1.5 12 1.5ZM12.722 12.403L13.988 17.888C14.022 18.036 13.987 18.193 13.892 18.312C13.797 18.431 13.652 18.5 13.5 18.5H10.5C10.348 18.5 10.204 18.431 10.109 18.312C10.014 18.193 9.979 18.037 10.013 17.888L11.279 12.403C9.972 12.078 9 10.907 9 9.5C9 7.843 10.343 6.5 12 6.5C13.657 6.5 15 7.843 15 9.5C15 10.907 14.028 12.078 12.722 12.403Z" fill="black"/>
</svg>
